<?xml version="1.0" encoding="utf-8"?>
<!-- Generator: Adobe Illustrator 18.0.0, SVG Export Plug-In . SVG Version: 6.00 Build 0)  -->
<!DOCTYPE svg PUBLIC "-//W3C//DTD SVG 1.1//EN" "http://www.w3.org/Graphics/SVG/1.1/DTD/svg11.dtd">
<svg version="1.1" id="Layer_1" xmlns="http://www.w3.org/2000/svg" xmlns:xlink="http://www.w3.org/1999/xlink" x="0px" y="0px"
	 viewBox="0 0 60 60" style="enable-background:new 0 0 60 60;" xml:space="preserve">
<g>
	<g>
		<path style="fill:#0098B6;" d="M29.8,56.6c-14.4,0-26.1-11.7-26.1-26.1S15.4,4.3,29.8,4.3s26.1,11.7,26.1,26.1
			S44.2,56.6,29.8,56.6z"/>
		<path style="fill:#FFFFFF;" d="M29.8,4.8c14.1,0,25.6,11.5,25.6,25.6S43.9,56.1,29.8,56.1S4.2,44.6,4.2,30.4S15.6,4.8,29.8,4.8
			 M29.8,3.8C15.1,3.8,3.2,15.8,3.2,30.4s11.9,26.6,26.6,26.6s26.6-11.9,26.6-26.6S44.4,3.8,29.8,3.8L29.8,3.8z"/>
	</g>
	<circle style="fill:#FFD758;stroke:#FFFFFF;stroke-miterlimit:10;" cx="45.5" cy="14.3" r="10.4"/>
</g>
</svg>
